#!OML:ASF F:\VICON\USERDATA\INSTALL\rory3\rory3.ASF
:FULLY-SPECIFIED
:DEGREES
1025
root 7.75917 17.7095 2.62965 191.625 -11.3272 178.7
lowerback 4.45364 -0.631334 -1.75026
upperback 2.7496 -1.05372 2.31212
thorax 0.403698 -0.63133 3.40231
lowerneck -14.8635 10.2602 -7.50024
upperneck 41.1191 14.889 -2.54068
head 17.2555 3.06735 2.34868
rclavicle 2.82274e-014 -7.95139e-015
rhumerus -39.7039 7.94657 -84.384
rradius 61.6769
rwrist 22.0595
rhand -25.3175 8.80175
rfingers 7.12502
rthumb 1.20491 -21.1746
lclavicle 2.82274e-014 -7.95139e-015
lhumerus -26.8713 1.57683 86.2396
lradius 44.4456
lwrist -3.84209
lhand -17.4784 21.8936
lfingers 7.12502
lthumb 8.77372 51.6912
rfemur -28.0436 5.83199 9.73006
rtibia 32.9935
rfoot -10.5785 7.89127
rtoes 7.08415
lfemur -22.0377 -14.9907 -12.4414
ltibia 31.7346
lfoot -15.8559 -16.3972
ltoes -10.0521
1026
root 7.80115 17.7223 2.5977 191.762 -12.3881 178.767
lowerback 4.3773 -0.619894 -1.46067
upperback 2.83289 -1.03563 2.37974
thorax 0.52651 -0.624659 3.30587
lowerneck -15.325 10.0885 -7.61074
upperneck 41.2874 14.8068 -2.54163
head 17.4655 2.99918 2.38951
rclavicle -6.55989e-015 -1.11319e-014
rhumerus -39.0173 8.86296 -84.4331
rradius 60.9866
rwrist 21.9623
rhand -25.3879 9.19739
rfingers 7.12502
rthumb 1.1369 -20.7793
lclavicle -6.55989e-015 -1.11319e-014
lhumerus -26.8043 1.61856 86.5129
lradius 44.5191
lwrist -4.07081
lhand -17.2864 22.0099
lfingers 7.12502
lthumb 8.95898 51.7997
rfemur -27.7525 5.07769 10.1299
rtibia 32.9124
rfoot -10.6513 7.76113
rtoes 6.90411
lfemur -22.2862 -14.3315 -12.6329
ltibia 32.3583
lfoot -15.9353 -14.6511
ltoes -11.7444
1027
root 7.8386 17.7375 2.56339 191.846 -13.3715 178.842
lowerback 4.26044 -0.58173 -1.15342
upperback 2.95495 -0.985222 2.44551
thorax 0.709601 -0.603155 3.19552
lowerneck -15.8027 9.88658 -7.87045
upperneck 41.4978 14.6489 -2.32931
head 17.6601 2.90764 2.53601
rclavicle 1.80894e-014 -3.49861e-014
rhumerus -38.3608 9.83878 -84.4006
rradius 60.5619
rwrist 22.2635
rhand -24.3389 8.60175
rfingers 7.12502
rthumb 2.1501 -21.3672
lclavicle 1.80894e-014 -3.49861e-014
lhumerus -26.7198 1.71326 86.786
lradius 44.5114
lwrist -4.27136
lhand -17.1927 21.6991
lfingers 7.12502
lthumb 9.04938 51.485
rfemur -27.4049 4.51068 10.4854
rtibia 32.7915
rfoot -10.885 7.59107
rtoes 7.44865
lfemur -22.5741 -13.444 -12.9391
ltibia 32.8795
lfoot -15.6809 -13.1116
ltoes -13.4114
1028
root 7.87293 17.7526 2.52428 191.865 -14.37 178.864
lowerback 4.15291 -0.546949 -0.942914
upperback 2.98951 -0.936341 2.51861
thorax 0.799857 -0.578957 3.14866
lowerneck -15.8369 9.7328 -8.06374
upperneck 41.6212 14.4279 -2.10929
head 17.697 2.81968 2.6334
rclavicle 3.22031e-014 -1.90833e-014
rhumerus -38.0326 10.8112 -84.3378
rradius 60.3637
rwrist 22.671
rhand -23.5257 8.22052
rfingers 7.12502
rthumb 2.93542 -21.739
lclavicle 3.22031e-014 -1.90833e-014
lhumerus -26.9094 1.71325 87.0877
lradius 44.4344
lwrist -4.42346
lhand -17.3678 21.1685
lfingers 7.12502
lthumb 8.88046 50.9616
rfemur -26.9502 3.99516 10.7637
rtibia 32.6456
rfoot -11.1545 7.4286
rtoes 7.9412
lfemur -22.8621 -12.5181 -13.353
ltibia 33.3492
lfoot -15.1766 -11.8294
ltoes -13.8952
1029
root 7.90968 17.7634 2.49126 191.977 -15.51 178.759
lowerback 4.05864 -0.550582 -0.89031
upperback 2.99124 -0.93994 2.58536
thorax 0.854886 -0.581076 3.18663
lowerneck -15.7924 9.57838 -8.14723
upperneck 41.5709 14.2482 -2.09514
head 17.6551 2.75913 2.62368
rclavicle 4.41302e-014 5.56597e-014
rhumerus -37.6865 11.6179 -84.1957
rradius 60.1703
rwrist 23.0931
rhand -23.053 8.40783
rfingers 7.12502
rthumb 3.39194 -21.5449
lclavicle 4.41302e-014 5.56597e-014
lhumerus -27.0982 1.73454 87.3934
lradius 44.3955
lwrist -4.762
lhand -17.2442 21.2736
lfingers 7.12502
lthumb 8.99968 51.0616
rfemur -26.587 3.32217 10.9289
rtibia 32.5076
rfoot -11.4279 7.2436
rtoes 8.12372
lfemur -23.1323 -11.6854 -13.8008
ltibia 33.7673
lfoot -14.8243 -10.7055
ltoes -13.1046
1030
root 7.95187 17.7677 2.47033 192.131 -16.8029 178.635
lowerback 4.07633 -0.581995 -0.901916
upperback 2.93859 -0.979379 2.67286
thorax 0.795286 -0.59984 3.28565
lowerneck -15.6857 9.39543 -8.12981
upperneck 41.4445 14.0334 -2.21622
head 17.5852 2.68883 2.52786
rclavicle -8.74653e-015 2.06736e-014
rhumerus -37.323 12.3491 -83.9782
rradius 60.0137
rwrist 23.7364
rhand -22.3818 8.4168
rfingers 7.12502
rthumb 4.0401 -21.5246
lclavicle -8.74653e-015 2.06736e-014
lhumerus -27.2377 1.5851 87.7331
lradius 44.2762
lwrist -4.90368
lhand -17.142 21.6327
lfingers 7.12502
lthumb 9.09828 51.4164
rfemur -26.2808 2.78831 11.0874
rtibia 32.393
rfoot -11.7698 6.80612
rtoes 8.79978
lfemur -23.4772 -10.9298 -14.1793
ltibia 34.1603
lfoot -14.6852 -9.61635
ltoes -11.5278
1031
root 7.99507 17.7764 2.44262 192.128 -18.0846 178.656
lowerback 4.16274 -0.594484 -0.834303
upperback 2.83442 -0.989597 2.79339
thorax 0.641805 -0.601562 3.37488
lowerneck -15.2887 9.29172 -7.95094
upperneck 41.395 13.8138 -2.37964
head 17.5036 2.62378 2.3679
rclavicle 3.18055e-015 4.6118e-014
rhumerus -37.1382 13.1683 -83.8118
rradius 59.8913
rwrist 24.2778
rhand -21.8574 8.12129
rfingers 7.12502
rthumb 4.54651 -21.8099
lclavicle 3.18055e-015 4.6118e-014
lhumerus -27.6333 1.36976 88.0455
lradius 44.2447
lwrist -4.8846
lhand -17.0762 21.9538
lfingers 7.12502
lthumb 9.16182 51.7348
rfemur -25.813 2.68712 11.3678
rtibia 32.2749
rfoot -12.2678 6.14154
rtoes 9.72335
lfemur -23.7311 -10.1014 -14.4576
ltibia 34.572
lfoot -14.6645 -8.44737
ltoes -13.291
1032
root 8.0364 17.7881 2.40651 192.107 -19.3605 178.705
lowerback 4.1764 -0.597261 -0.776835
upperback 2.77648 -0.990933 2.92603
thorax 0.576357 -0.601625 3.48058
lowerneck -15.0043 9.19387 -7.81978
upperneck 41.3517 13.6401 -2.50512
head 17.4426 2.57562 2.24856
rclavicle 1.82882e-014 -3.26007e-014
rhumerus -36.9665 13.9176 -83.6376
rradius 59.7863
rwrist 24.458
rhand -21.7018 8.25358
rfingers 7.12502
rthumb 4.69672 -21.6744
lclavicle 1.82882e-014 -3.26007e-014
lhumerus -27.9625 1.17351 88.3327
lradius 44.2207
lwrist -4.90391
lhand -16.6216 22.3193
lfingers 7.12502
lthumb 9.60046 52.0806
rfemur -25.3063 2.46738 11.7177
rtibia 32.1373
rfoot -12.805 5.476
rtoes 10.1337
lfemur -23.9361 -9.32494 -14.6677
ltibia 34.9548
lfoot -14.5264 -7.49378
ltoes -13.6326
1033
root 8.07452 17.8 2.37386 192.21 -20.6126 178.749
lowerback 4.13022 -0.576433 -0.637523
upperback 2.69155 -0.953771 2.99791
thorax 0.511336 -0.578855 3.47503
lowerneck -14.9109 9.01612 -7.77726
upperneck 41.3222 13.3844 -2.52348
head 17.4177 2.49526 2.18995
rclavicle -3.53837e-014 4.53229e-014
rhumerus -36.8151 14.4903 -83.4936
rradius 59.6635
rwrist 24.3517
rhand -21.9468 8.61792
rfingers 7.12502
rthumb 4.46012 -21.3151
lclavicle -3.53837e-014 4.53229e-014
lhumerus -28.2126 0.832196 88.565
lradius 44.1589
lwrist -5.01999
lhand -16.0327 22.4399
lfingers 7.12502
lthumb 10.1686 52.1742
rfemur -24.956 1.9775 12.0898
rtibia 31.9719
rfoot -13.2873 4.88323
rtoes 9.83869
lfemur -24.263 -8.60055 -14.8394
ltibia 35.2579
lfoot -14.2048 -6.61548
ltoes -13.1682
